<?xml version="1.0" encoding="UTF-8"?>
<!DOCTYPE svg PUBLIC "-//W3C//DTD SVG 1.1//EN" "http://www.w3.org/Graphics/SVG/1.1/DTD/svg11.dtd">
<svg xmlns="http://www.w3.org/2000/svg" version="1.1" width="1228px" height="1314px" style="shape-rendering:geometricPrecision; text-rendering:geometricPrecision; image-rendering:optimizeQuality; fill-rule:evenodd; clip-rule:evenodd" xmlns:xlink="http://www.w3.org/1999/xlink">
<g><path style="opacity:1" fill="#d6d7d6" d="M -0.5,-0.5 C 408.833,-0.5 818.167,-0.5 1227.5,-0.5C 1227.5,437.5 1227.5,875.5 1227.5,1313.5C 818.167,1313.5 408.833,1313.5 -0.5,1313.5C -0.5,875.5 -0.5,437.5 -0.5,-0.5 Z"/></g>
<g><path style="opacity:1" fill="#cacaca" d="M 675.5,482.5 C 679.884,485.526 684.551,488.193 689.5,490.5C 692.981,493.409 696.648,496.075 700.5,498.5C 702.239,501.243 704.573,503.243 707.5,504.5C 708.551,505.222 709.218,506.222 709.5,507.5C 709.973,508.906 710.973,509.573 712.5,509.5C 712.427,511.027 713.094,512.027 714.5,512.5C 715.443,515.109 717.11,517.109 719.5,518.5C 720.026,520.23 721.026,521.564 722.5,522.5C 725.743,529.077 729.41,535.41 733.5,541.5C 738.13,553.39 742.13,565.39 745.5,577.5C 745.5,577.833 745.5,578.167 745.5,578.5C 751.883,614.515 750.549,650.515 741.5,686.5C 739.201,691.676 737.201,697.009 735.5,702.5C 734.463,703.93 733.796,705.597 733.5,707.5C 729.677,713.138 726.344,719.138 723.5,725.5C 722.094,725.973 721.427,726.973 721.5,728.5C 719.453,730.55 717.786,732.883 716.5,735.5C 716.167,735.5 715.833,735.5 715.5,735.5C 714.026,736.436 713.026,737.77 712.5,739.5C 710.738,740.262 709.738,741.596 709.5,743.5C 705.9,745.43 702.9,748.097 700.5,751.5C 696.762,753.697 693.429,756.364 690.5,759.5C 685.976,761.043 681.976,763.377 678.5,766.5C 676.847,766.66 675.514,767.326 674.5,768.5C 670.203,769.655 666.203,771.321 662.5,773.5C 659.167,774.167 655.833,774.833 652.5,775.5C 652.555,778.614 653.888,780.948 656.5,782.5C 657.167,782.5 657.5,782.833 657.5,783.5C 659.656,787.175 662.656,789.842 666.5,791.5C 667.035,793.446 668.368,794.446 670.5,794.5C 670.842,795.338 671.508,795.672 672.5,795.5C 672.369,796.376 672.702,797.043 673.5,797.5C 695.594,808.136 717.927,810.803 740.5,805.5C 744.215,805.804 747.715,805.137 751,803.5C 751.667,804.167 752.333,804.833 753,805.5C 756.114,819.206 759.114,832.873 762,846.5C 758.742,848.595 755.409,849.595 752,849.5C 748.051,851.293 743.885,852.46 739.5,853C 727.892,854.662 716.225,855.495 704.5,855.5C 704.167,855.5 703.833,855.5 703.5,855.5C 692.152,854.159 680.819,852.159 669.5,849.5C 669.167,849.5 668.833,849.5 668.5,849.5C 660.052,846.122 651.718,842.288 643.5,838C 638.112,833.977 632.446,830.477 626.5,827.5C 626.167,826.5 625.5,825.833 624.5,825.5C 622.431,822.427 619.764,820.094 616.5,818.5C 614.57,814.9 611.903,811.9 608.5,809.5C 607.92,807.251 606.587,805.585 604.5,804.5C 604.262,802.596 603.262,801.262 601.5,800.5C 601.155,797.802 599.822,795.802 597.5,794.5C 595.204,788.681 592.204,783.181 588.5,778C 578.189,775.729 568.189,772.563 558.5,768.5C 555.001,766.25 551.335,764.25 547.5,762.5C 545.371,760.05 542.704,758.383 539.5,757.5C 537.781,754.781 535.447,752.781 532.5,751.5C 527.833,746.833 523.167,742.167 518.5,737.5C 517.92,735.251 516.587,733.585 514.5,732.5C 513.241,728.975 511.241,725.975 508.5,723.5C 506.003,717.835 503.003,712.502 499.5,707.5C 499.34,705.847 498.674,704.514 497.5,703.5C 497.741,701.102 497.074,699.102 495.5,697.5C 494.46,693.315 493.127,689.315 491.5,685.5C 478.679,636.037 481.346,588.037 499.5,541.5C 502.258,538.322 504.258,534.655 505.5,530.5C 506.338,530.158 506.672,529.492 506.5,528.5C 507.906,528.027 508.573,527.027 508.5,525.5C 508.932,524.29 509.599,523.29 510.5,522.5C 512.262,521.738 513.262,520.404 513.5,518.5C 515.587,517.415 516.92,515.749 517.5,513.5C 520.881,511.12 523.547,508.12 525.5,504.5C 528.089,503.581 530.089,501.914 531.5,499.5C 531.5,498.833 531.833,498.5 532.5,498.5C 535.533,496.984 538.2,494.984 540.5,492.5C 541.222,491.449 542.222,490.782 543.5,490.5C 549.878,487.159 556.211,483.826 562.5,480.5C 600.478,466.617 638.145,467.284 675.5,482.5 Z"/></g>
<g><path style="opacity:1" fill="#d1d1d1" d="M 675.5,482.5 C 638.145,467.284 600.478,466.617 562.5,480.5C 563.058,479.21 564.058,478.377 565.5,478C 576.907,474.029 588.574,471.196 600.5,469.5C 611.519,469.522 622.519,469.522 633.5,469.5C 643.111,470.604 652.778,472.77 662.5,476C 667.235,477.498 671.569,479.664 675.5,482.5 Z"/></g>
<g><path style="opacity:1" fill="#d1d1d1" d="M 562.5,480.5 C 556.211,483.826 549.878,487.159 543.5,490.5C 545.401,488.204 547.734,486.371 550.5,485C 554.173,482.665 558.173,481.165 562.5,480.5 Z"/></g>
<g><path style="opacity:1" fill="#d1d1d1" d="M 675.5,482.5 C 679.392,483.446 683.059,484.946 686.5,487C 688.063,487.759 689.063,488.926 689.5,490.5C 684.551,488.193 679.884,485.526 675.5,482.5 Z"/></g>
<g><path style="opacity:1" fill="#d1d1d0" d="M 540.5,492.5 C 538.2,494.984 535.533,496.984 532.5,498.5C 534.313,495.353 536.98,493.353 540.5,492.5 Z"/></g>
<g><path style="opacity:1" fill="#d1d1d1" d="M 689.5,490.5 C 694.314,491.655 697.981,494.322 700.5,498.5C 696.648,496.075 692.981,493.409 689.5,490.5 Z"/></g>
<g><path style="opacity:1" fill="#d1d0d0" d="M 700.5,498.5 C 703.427,499.757 705.761,501.757 707.5,504.5C 704.573,503.243 702.239,501.243 700.5,498.5 Z"/></g>
<g><path style="opacity:1" fill="#d2d1d0" d="M 531.5,499.5 C 530.089,501.914 528.089,503.581 525.5,504.5C 526.712,501.893 528.712,500.226 531.5,499.5 Z"/></g>
<g><path style="opacity:1" fill="#d1d1d1" d="M 525.5,504.5 C 523.547,508.12 520.881,511.12 517.5,513.5C 519.482,509.854 522.149,506.854 525.5,504.5 Z"/></g>
<g><path style="opacity:1" fill="#d1d1d2" d="M 709.5,507.5 C 711.179,507.285 712.179,507.952 712.5,509.5C 710.973,509.573 709.973,508.906 709.5,507.5 Z"/></g>
<g><path style="opacity:1" fill="#d1d1d0" d="M 712.5,509.5 C 713.906,509.973 714.573,510.973 714.5,512.5C 713.094,512.027 712.427,511.027 712.5,509.5 Z"/></g>
<g><path style="opacity:1" fill="#d1d1d1" d="M 714.5,512.5 C 716.86,513.865 718.527,515.865 719.5,518.5C 717.11,517.109 715.443,515.109 714.5,512.5 Z"/></g>
<g><path style="opacity:1" fill="#d1d1d1" d="M 517.5,513.5 C 516.92,515.749 515.587,517.415 513.5,518.5C 514.08,516.251 515.413,514.585 517.5,513.5 Z"/></g>
<g><path style="opacity:1" fill="#d1d1d1" d="M 513.5,518.5 C 513.262,520.404 512.262,521.738 510.5,522.5C 510.554,520.368 511.554,519.035 513.5,518.5 Z"/></g>
<g><path style="opacity:1" fill="#d0d1d0" d="M 642.5,526.5 C 627.052,521.949 611.386,521.282 595.5,524.5C 597.562,523.224 599.896,522.39 602.5,522C 615.459,519.726 628.459,520.726 641.5,525C 642.056,525.383 642.389,525.883 642.5,526.5 Z"/></g>
<g><path style="opacity:1" fill="#d6d6d6" d="M 642.5,526.5 C 645.008,528.924 648.008,530.59 651.5,531.5C 651.833,531.5 652.167,531.5 652.5,531.5C 653.638,534.086 655.638,535.753 658.5,536.5C 659.167,536.5 659.5,536.833 659.5,537.5C 661.915,540.616 664.581,543.616 667.5,546.5C 669.262,547.262 670.262,548.596 670.5,550.5C 671.34,552.853 672.674,554.853 674.5,556.5C 685.84,581.822 690.34,608.488 688,636.5C 687.16,646.889 685.994,657.223 684.5,667.5C 683.883,667.611 683.383,667.944 683,668.5C 681.795,674.654 680.295,680.654 678.5,686.5C 675.472,691.204 672.805,696.204 670.5,701.5C 669.094,701.973 668.427,702.973 668.5,704.5C 666.413,705.585 665.08,707.251 664.5,709.5C 662.086,710.911 660.419,712.911 659.5,715.5C 656.883,716.786 654.55,718.453 652.5,720.5C 651.833,720.5 651.5,720.833 651.5,721.5C 649.03,721.654 647.03,722.654 645.5,724.5C 640.118,727.016 634.452,728.849 628.5,730C 620.173,730.5 611.84,730.666 603.5,730.5C 595.722,727.569 588.056,724.235 580.5,720.5C 577.526,717.862 574.526,715.195 571.5,712.5C 570.167,711.833 569.167,710.833 568.5,709.5C 567.471,706.109 565.471,703.443 562.5,701.5C 561.662,701.158 561.328,700.492 561.5,699.5C 561.573,697.973 560.906,696.973 559.5,696.5C 559.539,693.911 558.539,691.911 556.5,690.5C 553.379,680.441 550.379,670.441 547.5,660.5C 547.611,659.883 547.944,659.383 548.5,659C 546.454,651.107 545.121,643.107 544.5,635C 544.819,629.098 544.819,622.598 544.5,615.5C 544.584,607.153 545.918,598.82 548.5,590.5C 548.291,589.914 547.957,589.414 547.5,589C 549.948,581.16 552.281,573.327 554.5,565.5C 557.418,560.667 560.084,555.667 562.5,550.5C 563.906,550.027 564.573,549.027 564.5,547.5C 566.531,546.461 567.864,544.795 568.5,542.5C 568.5,541.833 568.833,541.5 569.5,541.5C 571.341,540.598 572.674,539.264 573.5,537.5C 573.833,536.5 574.5,535.833 575.5,535.5C 576.552,535.649 577.552,535.483 578.5,535C 584.096,531.212 589.763,527.712 595.5,524.5C 611.386,521.282 627.052,521.949 642.5,526.5 Z"/></g>
<g><path style="opacity:1" fill="#d2d1d1" d="M 508.5,525.5 C 508.573,527.027 507.906,528.027 506.5,528.5C 506.427,526.973 507.094,525.973 508.5,525.5 Z"/></g>
<g><path style="opacity:1" fill="#d1d1d1" d="M 722.5,522.5 C 723.794,523.29 724.961,524.29 726,525.5C 728.796,530.756 731.296,536.09 733.5,541.5C 729.41,535.41 725.743,529.077 722.5,522.5 Z"/></g>
<g><path style="opacity:1" fill="#d1d2d1" d="M 595.5,524.5 C 589.763,527.712 584.096,531.212 578.5,535C 577.552,535.483 576.552,535.649 575.5,535.5C 581.238,530.295 587.904,526.628 595.5,524.5 Z"/></g>
<g><path style="opacity:1" fill="#d1d1d1" d="M 642.5,526.5 C 644.901,527.049 647.235,527.882 649.5,529C 650.381,529.708 651.047,530.542 651.5,531.5C 648.008,530.59 645.008,528.924 642.5,526.5 Z"/></g>
<g><path style="opacity:1" fill="#d1d1d1" d="M 652.5,531.5 C 655.109,532.443 657.109,534.11 658.5,536.5C 655.638,535.753 653.638,534.086 652.5,531.5 Z"/></g>
<g><path style="opacity:1" fill="#d1d1d1" d="M 505.5,530.5 C 504.258,534.655 502.258,538.322 499.5,541.5C 499.491,539.692 499.991,538.025 501,536.5C 502.277,534.253 503.777,532.253 505.5,530.5 Z"/></g>
<g><path style="opacity:1" fill="#d2d2d2" d="M 659.5,537.5 C 663.319,539.469 665.986,542.469 667.5,546.5C 664.581,543.616 661.915,540.616 659.5,537.5 Z"/></g>
<g><path style="opacity:1" fill="#d1d0d0" d="M 573.5,537.5 C 572.674,539.264 571.341,540.598 569.5,541.5C 569.894,539.29 571.227,537.957 573.5,537.5 Z"/></g>
<g><path style="opacity:1" fill="#d2d1d1" d="M 568.5,542.5 C 567.864,544.795 566.531,546.461 564.5,547.5C 565.08,545.251 566.413,543.585 568.5,542.5 Z"/></g>
<g><path style="opacity:1" fill="#d1d1d1" d="M 564.5,547.5 C 564.573,549.027 563.906,550.027 562.5,550.5C 562.427,548.973 563.094,547.973 564.5,547.5 Z"/></g>
<g><path style="opacity:1" fill="#d1d1d1" d="M 733.5,541.5 C 734.79,542.058 735.623,543.058 736,544.5C 738.826,551.496 741.492,558.496 744,565.5C 743.111,568.376 743.944,570.876 746.5,573C 746.481,574.521 746.148,576.021 745.5,577.5C 742.13,565.39 738.13,553.39 733.5,541.5 Z"/></g>
<g><path style="opacity:1" fill="#d1d1d0" d="M 670.5,550.5 C 672.822,551.802 674.155,553.802 674.5,556.5C 672.674,554.853 671.34,552.853 670.5,550.5 Z"/></g>
<g><path style="opacity:1" fill="#d0d1d1" d="M 562.5,550.5 C 560.084,555.667 557.418,560.667 554.5,565.5C 555.878,559.74 558.545,554.74 562.5,550.5 Z"/></g>
<g><path style="opacity:1" fill="#d1d1d1" d="M 499.5,541.5 C 481.346,588.037 478.679,636.037 491.5,685.5C 487.604,677.843 485.604,669.843 485.5,661.5C 478.254,621.322 482.087,582.322 497,544.5C 497.852,543.429 498.685,542.429 499.5,541.5 Z"/></g>
<g><path style="opacity:1" fill="#d1d1d1" d="M 674.5,556.5 C 678.366,561.891 681.2,567.891 683,574.5C 686.107,584.599 688.107,594.932 689,605.5C 689.46,618.872 689.627,632.038 689.5,645C 688.342,652.723 686.675,660.223 684.5,667.5C 685.994,657.223 687.16,646.889 688,636.5C 690.34,608.488 685.84,581.822 674.5,556.5 Z"/></g>
<g><path style="opacity:1" fill="#d1d1d1" d="M 554.5,565.5 C 552.281,573.327 549.948,581.16 547.5,589C 547.957,589.414 548.291,589.914 548.5,590.5C 545.918,598.82 544.584,607.153 544.5,615.5C 544.819,622.598 544.819,629.098 544.5,635C 545.121,643.107 546.454,651.107 548.5,659C 547.944,659.383 547.611,659.883 547.5,660.5C 545.396,654.13 544.229,647.463 544,640.5C 541.632,615.378 544.632,590.712 553,566.5C 553.383,565.944 553.883,565.611 554.5,565.5 Z"/></g>
<g><path style="opacity:1" fill="#d1d1d2" d="M 745.5,578.5 C 746.601,579.848 747.601,581.348 748.5,583C 748.167,583.333 747.833,583.667 747.5,584C 748.096,588.096 749.096,592.096 750.5,596C 750.384,597.268 750.051,598.602 749.5,600C 751.05,611.786 751.717,622.453 751.5,632C 750.906,643.08 749.573,654.08 747.5,665C 747.833,665.333 748.167,665.667 748.5,666C 746.256,672.9 743.922,679.734 741.5,686.5C 750.549,650.515 751.883,614.515 745.5,578.5 Z"/></g>
<g><path style="opacity:1" fill="#d1d0d1" d="M 684.5,667.5 C 684.035,674.151 682.035,680.484 678.5,686.5C 680.295,680.654 681.795,674.654 683,668.5C 683.383,667.944 683.883,667.611 684.5,667.5 Z"/></g>
<g><path style="opacity:1" fill="#d1d1d1" d="M 547.5,660.5 C 550.379,670.441 553.379,680.441 556.5,690.5C 554.058,686.028 551.891,681.362 550,676.5C 548.634,671.24 547.801,665.907 547.5,660.5 Z"/></g>
<g><path style="opacity:1" fill="#d1d1d1" d="M 491.5,685.5 C 493.127,689.315 494.46,693.315 495.5,697.5C 494.685,696.571 493.852,695.571 493,694.5C 492.79,691.766 491.956,689.266 490.5,687C 491.056,686.617 491.389,686.117 491.5,685.5 Z"/></g>
<g><path style="opacity:1" fill="#d1d1d1" d="M 678.5,686.5 C 676.957,692.156 674.29,697.156 670.5,701.5C 672.805,696.204 675.472,691.204 678.5,686.5 Z"/></g>
<g><path style="opacity:1" fill="#d1d1d1" d="M 556.5,690.5 C 558.539,691.911 559.539,693.911 559.5,696.5C 557.755,694.967 556.755,692.967 556.5,690.5 Z"/></g>
<g><path style="opacity:1" fill="#d1d0d1" d="M 741.5,686.5 C 741.804,687.15 742.137,687.817 742.5,688.5C 740.517,693.521 738.184,698.187 735.5,702.5C 737.201,697.009 739.201,691.676 741.5,686.5 Z"/></g>
<g><path style="opacity:1" fill="#d1d0d1" d="M 559.5,696.5 C 560.906,696.973 561.573,697.973 561.5,699.5C 560.094,699.027 559.427,698.027 559.5,696.5 Z"/></g>
<g><path style="opacity:1" fill="#d2d1d1" d="M 495.5,697.5 C 497.074,699.102 497.741,701.102 497.5,703.5C 495.926,701.898 495.259,699.898 495.5,697.5 Z"/></g>
<g><path style="opacity:1" fill="#d0d0d0" d="M 670.5,701.5 C 670.573,703.027 669.906,704.027 668.5,704.5C 668.427,702.973 669.094,701.973 670.5,701.5 Z"/></g>
<g><path style="opacity:1" fill="#d0d1d0" d="M 668.5,704.5 C 667.864,706.795 666.531,708.461 664.5,709.5C 665.08,707.251 666.413,705.585 668.5,704.5 Z"/></g>
<g><path style="opacity:1" fill="#d1d0d1" d="M 562.5,701.5 C 565.471,703.443 567.471,706.109 568.5,709.5C 565.529,707.557 563.529,704.891 562.5,701.5 Z"/></g>
<g><path style="opacity:1" fill="#d0cfcf" d="M 664.5,709.5 C 663.581,712.089 661.914,714.089 659.5,715.5C 660.419,712.911 662.086,710.911 664.5,709.5 Z"/></g>
<g><path style="opacity:1" fill="#d0d0d0" d="M 499.5,707.5 C 503.003,712.502 506.003,717.835 508.5,723.5C 504.505,718.855 501.505,713.522 499.5,707.5 Z"/></g>
<g><path style="opacity:1" fill="#d0d0d0" d="M 571.5,712.5 C 574.526,715.195 577.526,717.862 580.5,720.5C 576.233,719.232 573.233,716.565 571.5,712.5 Z"/></g>
<g><path style="opacity:1" fill="#d1d1d1" d="M 733.5,707.5 C 731.469,714.294 728.136,720.294 723.5,725.5C 726.344,719.138 729.677,713.138 733.5,707.5 Z"/></g>
<g><path style="opacity:1" fill="#d1d1d0" d="M 659.5,715.5 C 658.008,718.323 655.674,719.99 652.5,720.5C 654.55,718.453 656.883,716.786 659.5,715.5 Z"/></g>
<g><path style="opacity:1" fill="#d2d2d1" d="M 651.5,721.5 C 650.089,723.539 648.089,724.539 645.5,724.5C 647.03,722.654 649.03,721.654 651.5,721.5 Z"/></g>
<g><path style="opacity:1" fill="#d1d1d1" d="M 580.5,720.5 C 588.056,724.235 595.722,727.569 603.5,730.5C 594.646,729.565 586.979,726.232 580.5,720.5 Z"/></g>
<g><path style="opacity:1" fill="#d1d1d1" d="M 508.5,723.5 C 511.241,725.975 513.241,728.975 514.5,732.5C 511.723,730.049 509.723,727.049 508.5,723.5 Z"/></g>
<g><path style="opacity:1" fill="#d1d1d1" d="M 723.5,725.5 C 723.573,727.027 722.906,728.027 721.5,728.5C 721.427,726.973 722.094,725.973 723.5,725.5 Z"/></g>
<g><path style="opacity:1" fill="#d1d0d1" d="M 645.5,724.5 C 645.047,725.458 644.381,726.292 643.5,727C 639.492,728.113 635.659,729.613 632,731.5C 631.667,731.167 631.333,730.833 631,730.5C 622.993,732.369 615.326,733.036 608,732.5C 606.378,731.901 604.878,731.234 603.5,730.5C 611.84,730.666 620.173,730.5 628.5,730C 634.452,728.849 640.118,727.016 645.5,724.5 Z"/></g>
<g><path style="opacity:1" fill="#d1d1d1" d="M 514.5,732.5 C 516.587,733.585 517.92,735.251 518.5,737.5C 516.413,736.415 515.08,734.749 514.5,732.5 Z"/></g>
<g><path style="opacity:1" fill="#d1d1d1" d="M 721.5,728.5 C 720.99,731.674 719.323,734.008 716.5,735.5C 717.786,732.883 719.453,730.55 721.5,728.5 Z"/></g>
<g><path style="opacity:1" fill="#d0d0d1" d="M 715.5,735.5 C 715.446,737.632 714.446,738.965 712.5,739.5C 713.026,737.77 714.026,736.436 715.5,735.5 Z"/></g>
<g><path style="opacity:1" fill="#d1d1d1" d="M 518.5,737.5 C 523.167,742.167 527.833,746.833 532.5,751.5C 526.5,748.167 521.833,743.5 518.5,737.5 Z"/></g>
<g><path style="opacity:1" fill="#d1d1d1" d="M 712.5,739.5 C 712.262,741.404 711.262,742.738 709.5,743.5C 709.738,741.596 710.738,740.262 712.5,739.5 Z"/></g>
<g><path style="opacity:1" fill="#d1d1d1" d="M 709.5,743.5 C 707.1,746.903 704.1,749.57 700.5,751.5C 702.9,748.097 705.9,745.43 709.5,743.5 Z"/></g>
<g><path style="opacity:1" fill="#d2d1d1" d="M 532.5,751.5 C 535.447,752.781 537.781,754.781 539.5,757.5C 536.527,756.19 534.193,754.19 532.5,751.5 Z"/></g>
<g><path style="opacity:1" fill="#d1d1d1" d="M 700.5,751.5 C 700.586,752.496 700.252,753.329 699.5,754C 696.444,755.856 693.444,757.689 690.5,759.5C 693.429,756.364 696.762,753.697 700.5,751.5 Z"/></g>
<g><path style="opacity:1" fill="#d1d1d1" d="M 539.5,757.5 C 542.704,758.383 545.371,760.05 547.5,762.5C 544.197,761.849 541.53,760.182 539.5,757.5 Z"/></g>
<g><path style="opacity:1" fill="#d1d1d2" d="M 690.5,759.5 C 687.256,763.066 683.256,765.399 678.5,766.5C 681.976,763.377 685.976,761.043 690.5,759.5 Z"/></g>
<g><path style="opacity:1" fill="#d1d1d1" d="M 547.5,762.5 C 551.335,764.25 555.001,766.25 558.5,768.5C 553.993,767.752 550.327,765.752 547.5,762.5 Z"/></g>
<g><path style="opacity:1" fill="#d2d1d1" d="M 678.5,766.5 C 677.713,768.104 676.38,768.771 674.5,768.5C 675.514,767.326 676.847,766.66 678.5,766.5 Z"/></g>
<g><path style="opacity:1" fill="#d1d1d1" d="M 674.5,768.5 C 671.244,770.556 667.744,772.556 664,774.5C 663.617,773.944 663.117,773.611 662.5,773.5C 666.203,771.321 670.203,769.655 674.5,768.5 Z"/></g>
<g><path style="opacity:1" fill="#d1d1d1" d="M 558.5,768.5 C 568.189,772.563 578.189,775.729 588.5,778C 592.204,783.181 595.204,788.681 597.5,794.5C 593.817,789.653 590.484,784.487 587.5,779C 580.025,777.505 572.692,775.505 565.5,773C 562.813,771.951 560.48,770.451 558.5,768.5 Z"/></g>
<g><path style="opacity:1" fill="#d1d0d1" d="M 662.5,773.5 C 660.572,775.113 658.238,776.113 655.5,776.5C 655.167,777 654.833,777.5 654.5,778C 655.414,779.406 656.08,780.906 656.5,782.5C 653.888,780.948 652.555,778.614 652.5,775.5C 655.833,774.833 659.167,774.167 662.5,773.5 Z"/></g>
<g><path style="opacity:1" fill="#d2d2d2" d="M 657.5,783.5 C 661.1,785.43 664.1,788.097 666.5,791.5C 662.656,789.842 659.656,787.175 657.5,783.5 Z"/></g>
<g><path style="opacity:1" fill="#d1d1d0" d="M 666.5,791.5 C 668.23,792.026 669.564,793.026 670.5,794.5C 668.368,794.446 667.035,793.446 666.5,791.5 Z"/></g>
<g><path style="opacity:1" fill="#d1d1d1" d="M 597.5,794.5 C 599.822,795.802 601.155,797.802 601.5,800.5C 600.164,798.693 598.497,797.193 596.5,796C 597.056,795.617 597.389,795.117 597.5,794.5 Z"/></g>
<g><path style="opacity:1" fill="#d1d1d1" d="M 601.5,800.5 C 603.262,801.262 604.262,802.596 604.5,804.5C 602.554,803.965 601.554,802.632 601.5,800.5 Z"/></g>
<g><path style="opacity:1" fill="#d1d1d1" d="M 604.5,804.5 C 606.587,805.585 607.92,807.251 608.5,809.5C 606.469,808.461 605.136,806.795 604.5,804.5 Z"/></g>
<g><path style="opacity:1" fill="#d1d1d1" d="M 672.5,795.5 C 694.356,805.748 717.023,809.082 740.5,805.5C 717.927,810.803 695.594,808.136 673.5,797.5C 672.702,797.043 672.369,796.376 672.5,795.5 Z"/></g>
<g><path style="opacity:1" fill="#d1d1d1" d="M 608.5,809.5 C 611.903,811.9 614.57,814.9 616.5,818.5C 613.126,816.126 610.459,813.126 608.5,809.5 Z"/></g>
<g><path style="opacity:1" fill="#d1d0d1" d="M 616.5,818.5 C 619.764,820.094 622.431,822.427 624.5,825.5C 621.21,823.876 618.543,821.543 616.5,818.5 Z"/></g>
<g><path style="opacity:1" fill="#d1d1d1" d="M 626.5,827.5 C 632.446,830.477 638.112,833.977 643.5,838C 651.718,842.288 660.052,846.122 668.5,849.5C 652.719,845.415 638.719,838.081 626.5,827.5 Z"/></g>
<g><path style="opacity:1" fill="#d1d1d1" d="M 669.5,849.5 C 680.819,852.159 692.152,854.159 703.5,855.5C 692.821,855.626 681.821,854.126 670.5,851C 669.944,850.617 669.611,850.117 669.5,849.5 Z"/></g>
<g><path style="opacity:1" fill="#d1d1d1" d="M 704.5,855.5 C 716.225,855.495 727.892,854.662 739.5,853C 743.885,852.46 748.051,851.293 752,849.5C 755.409,849.595 758.742,848.595 762,846.5C 759.114,832.873 756.114,819.206 753,805.5C 752.333,804.833 751.667,804.167 751,803.5C 747.715,805.137 744.215,805.804 740.5,805.5C 743.707,804.513 747.041,803.513 750.5,802.5C 752.029,802.529 753.196,803.196 754,804.5C 756.942,818.354 760.442,832.354 764.5,846.5C 761.909,848.739 758.909,850.239 755.5,851C 738.859,855.768 721.859,857.268 704.5,855.5 Z"/></g>
</svg>
