<?xml version="1.0" encoding="UTF-8"?>
<!DOCTYPE svg PUBLIC "-//W3C//DTD SVG 1.1//EN" "http://www.w3.org/Graphics/SVG/1.1/DTD/svg11.dtd">
<svg xmlns="http://www.w3.org/2000/svg" version="1.1" width="822px" height="516px" style="shape-rendering:geometricPrecision; text-rendering:geometricPrecision; image-rendering:optimizeQuality; fill-rule:evenodd; clip-rule:evenodd" xmlns:xlink="http://www.w3.org/1999/xlink">
<g><path style="opacity:1" fill="#fefefe" d="M -0.5,-0.5 C 273.5,-0.5 547.5,-0.5 821.5,-0.5C 821.5,0.166667 821.5,0.833333 821.5,1.5C 547.5,1.5 273.5,1.5 -0.5,1.5C -0.5,0.833333 -0.5,0.166667 -0.5,-0.5 Z"/></g>
<g><path style="opacity:1" fill="#d6d6d6" d="M -0.5,1.5 C 273.5,1.5 547.5,1.5 821.5,1.5C 821.5,172.833 821.5,344.167 821.5,515.5C 547.5,515.5 273.5,515.5 -0.5,515.5C -0.5,344.167 -0.5,172.833 -0.5,1.5 Z"/></g>
<g><path style="opacity:1" fill="#cbcbca" d="M 376.5,167.5 C 417.181,166.595 440.681,186.262 447,226.5C 450.282,251.099 445.282,273.766 432,294.5C 423.452,303.857 413.285,310.857 401.5,315.5C 409.711,325.602 420.377,330.269 433.5,329.5C 438.944,329.569 444.277,328.903 449.5,327.5C 450.354,333.917 451.687,340.251 453.5,346.5C 453.392,347.442 453.059,348.275 452.5,349C 423.342,357.339 398.509,350.505 378,328.5C 375.123,324.582 372.623,320.415 370.5,316C 344.156,308.988 327.989,292.155 322,265.5C 317.656,243.998 319.323,222.998 327,202.5C 337.348,181.966 353.848,170.299 376.5,167.5 Z"/></g>
<g><path style="opacity:1" fill="#d6d6d6" d="M 374.5,192.5 C 398.012,189.828 412.179,200.161 417,223.5C 419.684,239.422 418.684,255.089 414,270.5C 406.512,287.995 393.346,295.162 374.5,292C 360.164,285.547 351.997,274.38 350,258.5C 347.603,244.65 348.27,230.984 352,217.5C 355.555,205.453 363.055,197.12 374.5,192.5 Z"/></g>
</svg>
