<svg width="26" height="26" viewBox="0 0 26 26" fill="none" xmlns="http://www.w3.org/2000/svg">
<path d="M13.0001 13.5417C13.5984 13.5417 14.0834 13.0566 14.0834 12.4583C14.0834 11.86 13.5984 11.375 13.0001 11.375C12.4018 11.375 11.9167 11.86 11.9167 12.4583C11.9167 13.0566 12.4018 13.5417 13.0001 13.5417Z" stroke="#CFCFCF" stroke-linecap="round" stroke-linejoin="round"/>
<path d="M13.0001 6.50004C13.5984 6.50004 14.0834 6.01502 14.0834 5.41671C14.0834 4.8184 13.5984 4.33337 13.0001 4.33337C12.4018 4.33337 11.9167 4.8184 11.9167 5.41671C11.9167 6.01502 12.4018 6.50004 13.0001 6.50004Z" stroke="#CFCFCF" stroke-linecap="round" stroke-linejoin="round"/>
<path d="M13.0001 20.5833C13.5984 20.5833 14.0834 20.0983 14.0834 19.5C14.0834 18.9017 13.5984 18.4166 13.0001 18.4166C12.4018 18.4166 11.9167 18.9017 11.9167 19.5C11.9167 20.0983 12.4018 20.5833 13.0001 20.5833Z" stroke="#CFCFCF" stroke-linecap="round" stroke-linejoin="round"/>
<ellipse cx="12.9999" cy="5.47365" rx="0.684211" ry="1.36842" fill="#CFCFCF"/>
<ellipse cx="12.9999" cy="12.3158" rx="0.684211" ry="1.36842" fill="#CFCFCF"/>
<ellipse cx="12.9999" cy="19.1579" rx="0.684211" ry="1.36842" fill="#CFCFCF"/>
</svg>
