<svg width="15" height="15" viewBox="0 0 15 15" fill="none" xmlns="http://www.w3.org/2000/svg">
<path d="M14.25 7.10419C14.2527 8.14908 14.0086 9.17985 13.5375 10.1125C12.9789 11.2302 12.1202 12.1702 11.0576 12.8274C9.99491 13.4845 8.77028 13.8329 7.52083 13.8334C6.47594 13.8361 5.44517 13.592 4.5125 13.1209L0 14.625L1.50417 10.1125C1.03307 9.17985 0.788942 8.14908 0.791667 7.10419C0.79215 5.85475 1.14048 4.63011 1.79765 3.56746C2.45482 2.5048 3.39487 1.6461 4.5125 1.08752C5.44517 0.616426 6.47594 0.372298 7.52083 0.375023H7.91667C9.56677 0.466058 11.1253 1.16254 12.2939 2.33112C13.4625 3.4997 14.159 5.05825 14.25 6.70836V7.10419Z" fill="#AEC0D3"/>
</svg>
