<svg width="15" height="15" viewBox="0 0 15 15" fill="none" xmlns="http://www.w3.org/2000/svg">
<path d="M2.54167 13.875H12.4583C13.2407 13.875 13.875 13.2407 13.875 12.4583V2.54167C13.875 1.75926 13.2407 1.125 12.4583 1.125H2.54167C1.75926 1.125 1.125 1.75926 1.125 2.54167V12.4583C1.125 13.2407 1.75926 13.875 2.54167 13.875ZM2.54167 13.875L10.3333 6.08333L13.875 9.625M6.08333 5.02083C6.08333 5.60764 5.60764 6.08333 5.02083 6.08333C4.43403 6.08333 3.95833 5.60764 3.95833 5.02083C3.95833 4.43403 4.43403 3.95833 5.02083 3.95833C5.60764 3.95833 6.08333 4.43403 6.08333 5.02083Z" stroke="#A0B3CC" stroke-linecap="round" stroke-linejoin="round"/>
</svg>
