<svg width="38" height="38" viewBox="0 0 38 38" fill="none" xmlns="http://www.w3.org/2000/svg">
<path d="M33.6119 31.119C35.5624 28.7743 36.9189 25.9947 37.5668 23.0153C38.2147 20.0359 38.1349 16.9445 37.3341 14.0024C36.5333 11.0604 35.0352 8.35434 32.9664 6.11319C30.8976 3.87204 28.3189 2.16171 25.4487 1.12691C22.5784 0.0921013 19.5009 -0.236747 16.4766 0.168181C13.4522 0.573109 10.5699 1.6999 8.0736 3.45324C5.57725 5.20657 3.54026 7.53487 2.13494 10.2412C0.729629 12.9475 -0.00266542 15.9522 7.28987e-06 19.001C0.0010329 23.4333 1.56421 27.7235 4.41523 31.119L4.38807 31.1421C4.48314 31.2561 4.59179 31.3538 4.68957 31.4664C4.8118 31.6062 4.94354 31.7378 5.06984 31.8735C5.45011 32.2861 5.84125 32.6823 6.2514 33.0541C6.37635 33.1681 6.50537 33.274 6.63167 33.3825C7.06627 33.757 7.51309 34.1126 7.9762 34.4437C8.03596 34.4844 8.09029 34.5373 8.15004 34.5794V34.5631C11.3309 36.7997 15.1254 38 19.0149 38C22.9044 38 26.699 36.7997 29.8798 34.5631V34.5794C29.9396 34.5373 29.9926 34.4844 30.0537 34.4437C30.5154 34.1112 30.9636 33.757 31.3982 33.3825C31.5245 33.274 31.6535 33.1668 31.7785 33.0541C32.1886 32.6809 32.5798 32.2861 32.96 31.8735C33.0863 31.7378 33.2167 31.6062 33.3403 31.4664C33.4367 31.3538 33.5468 31.2561 33.6418 31.1408L33.6119 31.119ZM19.0136 8.14505C20.2223 8.14505 21.4039 8.50319 22.409 9.17418C23.414 9.84517 24.1973 10.7989 24.6599 11.9147C25.1224 13.0305 25.2435 14.2583 25.0077 15.4429C24.7719 16.6274 24.1898 17.7155 23.3351 18.5695C22.4804 19.4235 21.3914 20.0051 20.2059 20.2407C19.0204 20.4763 17.7915 20.3554 16.6748 19.8932C15.5581 19.431 14.6036 18.6483 13.9321 17.6441C13.2605 16.6399 12.9021 15.4593 12.9021 14.2515C12.9021 12.632 13.546 11.0788 14.6921 9.9336C15.8382 8.78841 17.3927 8.14505 19.0136 8.14505ZM8.15819 31.119C8.18175 29.3373 8.90644 27.6364 10.1755 26.3844C11.4445 25.1324 13.1558 24.43 14.9392 24.429H23.0879C24.8713 24.43 26.5827 25.1324 27.8517 26.3844C29.1207 27.6364 29.8454 29.3373 29.869 31.119C26.8904 33.8009 23.0231 35.2851 19.0136 35.2851C15.0041 35.2851 11.1367 33.8009 8.15819 31.119Z" fill="#F8F8F8"/>
</svg>
