<svg width="21" height="21" viewBox="0 0 21 21" fill="none" xmlns="http://www.w3.org/2000/svg">
<path d="M8.9806 17.9602C10.9731 17.9598 12.9083 17.2928 14.4778 16.0654L19.4127 21L21 19.4128L16.0652 14.4782C17.2933 12.9085 17.9607 10.9731 17.9612 8.98011C17.9612 4.0287 13.9323 0 8.9806 0C4.02892 0 0 4.0287 0 8.98011C0 13.9315 4.02892 17.9602 8.9806 17.9602ZM8.9806 2.24503C12.6952 2.24503 15.716 5.26571 15.716 8.98011C15.716 12.6945 12.6952 15.7152 8.9806 15.7152C5.266 15.7152 2.24515 12.6945 2.24515 8.98011C2.24515 5.26571 5.266 2.24503 8.9806 2.24503Z" fill="#A0B3CC"/>
</svg>
