<svg width="17" height="17" viewBox="0 0 17 17" fill="none" xmlns="http://www.w3.org/2000/svg">
<path d="M8.5 10.625C9.6736 10.625 10.625 9.6736 10.625 8.5C10.625 7.32639 9.6736 6.375 8.5 6.375C7.32639 6.375 6.375 7.32639 6.375 8.5C6.375 9.6736 7.32639 10.625 8.5 10.625Z" stroke="#CFCFCF" stroke-linecap="round" stroke-linejoin="round"/>
<path d="M13.7416 10.625C13.6473 10.8387 13.6192 11.0757 13.6608 11.3055C13.7025 11.5352 13.812 11.7473 13.9753 11.9142L14.0178 11.9567C14.1496 12.0883 14.254 12.2445 14.3253 12.4165C14.3966 12.5885 14.4333 12.7728 14.4333 12.959C14.4333 13.1452 14.3966 13.3295 14.3253 13.5015C14.254 13.6735 14.1496 13.8297 14.0178 13.9613C13.8863 14.093 13.73 14.1975 13.558 14.2688C13.3861 14.3401 13.2017 14.3768 13.0155 14.3768C12.8294 14.3768 12.645 14.3401 12.473 14.2688C12.3011 14.1975 12.1448 14.093 12.0133 13.9613L11.9708 13.9188C11.8038 13.7555 11.5918 13.646 11.362 13.6043C11.1322 13.5626 10.8952 13.5908 10.6816 13.685C10.4721 13.7748 10.2934 13.9239 10.1676 14.114C10.0417 14.304 9.97416 14.5267 9.97325 14.7546V14.875C9.97325 15.2508 9.824 15.6111 9.55832 15.8768C9.29264 16.1425 8.93231 16.2917 8.55659 16.2917C8.18086 16.2917 7.82053 16.1425 7.55485 15.8768C7.28917 15.6111 7.13992 15.2508 7.13992 14.875V14.8113C7.13443 14.5768 7.05854 14.3495 6.92211 14.1587C6.78568 13.968 6.59502 13.8227 6.37492 13.7417C6.16127 13.6474 5.92428 13.6193 5.6945 13.661C5.46472 13.7026 5.25269 13.8122 5.08575 13.9755L5.04325 14.018C4.91168 14.1497 4.75544 14.2542 4.58346 14.3255C4.41148 14.3968 4.22713 14.4334 4.04096 14.4334C3.85479 14.4334 3.67044 14.3968 3.49846 14.3255C3.32648 14.2542 3.17024 14.1497 3.03867 14.018C2.90695 13.8864 2.80246 13.7301 2.73117 13.5582C2.65987 13.3862 2.62318 13.2018 2.62318 13.0157C2.62318 12.8295 2.65987 12.6451 2.73117 12.4732C2.80246 12.3012 2.90695 12.1449 3.03867 12.0134L3.08117 11.9709C3.24447 11.8039 3.35401 11.5919 3.39567 11.3621C3.43734 11.1323 3.40921 10.8954 3.31492 10.6817C3.22513 10.4722 3.07604 10.2935 2.886 10.1677C2.69596 10.0418 2.47327 9.97428 2.24534 9.97337H2.12492C1.7492 9.97337 1.38886 9.82412 1.12318 9.55844C0.857507 9.29276 0.708252 8.93243 0.708252 8.55671C0.708252 8.18098 0.857507 7.82065 1.12318 7.55497C1.38886 7.2893 1.7492 7.14004 2.12492 7.14004H2.18867C2.42312 7.13456 2.65051 7.05867 2.84126 6.92224C3.03201 6.7858 3.1773 6.59514 3.25825 6.37504C3.35254 6.1614 3.38067 5.9244 3.33901 5.69462C3.29734 5.46484 3.1878 5.25281 3.0245 5.08587L2.982 5.04337C2.85029 4.9118 2.74579 4.75556 2.6745 4.58358C2.60321 4.4116 2.56651 4.22725 2.56651 4.04108C2.56651 3.85491 2.60321 3.67056 2.6745 3.49858C2.74579 3.3266 2.85029 3.17036 2.982 3.03879C3.11357 2.90707 3.26981 2.80258 3.44179 2.73129C3.61378 2.66 3.79812 2.6233 3.98429 2.6233C4.17047 2.6233 4.35481 2.66 4.52679 2.73129C4.69877 2.80258 4.85501 2.90707 4.98659 3.03879L5.02909 3.08129C5.19602 3.24459 5.40805 3.35413 5.63783 3.39579C5.86761 3.43746 6.10461 3.40933 6.31825 3.31504H6.37492C6.58442 3.22525 6.7631 3.07616 6.88895 2.88612C7.0148 2.69608 7.08234 2.47339 7.08325 2.24546V2.12504C7.08325 1.74932 7.23251 1.38898 7.49818 1.12331C7.76386 0.85763 8.1242 0.708374 8.49992 0.708374C8.87564 0.708374 9.23598 0.85763 9.50165 1.12331C9.76733 1.38898 9.91659 1.74932 9.91659 2.12504V2.18879C9.91749 2.41672 9.98503 2.63941 10.1109 2.82945C10.2367 3.01949 10.4154 3.16858 10.6249 3.25837C10.8386 3.35266 11.0756 3.38079 11.3053 3.33913C11.5351 3.29746 11.7471 3.18792 11.9141 3.02462L11.9566 2.98212C12.0882 2.85041 12.2444 2.74592 12.4164 2.67462C12.5884 2.60333 12.7727 2.56663 12.9589 2.56663C13.145 2.56663 13.3294 2.60333 13.5014 2.67462C13.6734 2.74592 13.8296 2.85041 13.9612 2.98212C14.0929 3.11369 14.1974 3.26994 14.2687 3.44192C14.34 3.6139 14.3767 3.79824 14.3767 3.98442C14.3767 4.17059 14.34 4.35493 14.2687 4.52691C14.1974 4.69889 14.0929 4.85514 13.9612 4.98671L13.9187 5.02921C13.7554 5.19615 13.6458 5.40818 13.6042 5.63796C13.5625 5.86774 13.5906 6.10473 13.6849 6.31837V6.37504C13.7747 6.58454 13.9238 6.76322 14.1138 6.88907C14.3039 7.01493 14.5266 7.08246 14.7545 7.08337H14.8749C15.2506 7.08337 15.611 7.23263 15.8767 7.49831C16.1423 7.76398 16.2916 8.12432 16.2916 8.50004C16.2916 8.87576 16.1423 9.2361 15.8767 9.50177C15.611 9.76745 15.2506 9.91671 14.8749 9.91671H14.8112C14.5832 9.91762 14.3605 9.98515 14.1705 10.111C13.9805 10.2369 13.8314 10.4155 13.7416 10.625V10.625Z" stroke="#CFCFCF" stroke-linecap="round" stroke-linejoin="round"/>
</svg>
