<svg width="31" height="29" viewBox="0 0 31 29" fill="none" xmlns="http://www.w3.org/2000/svg">
<path d="M14.4496 0.638245L14.8962 0.863111L14.8955 0.864485C15.0595 0.544526 15.4654 0.405615 15.8021 0.568464L15.8027 0.568741C15.9353 0.632634 16.0405 0.736731 16.1037 0.862676L16.104 0.863111L20.2583 9.11351L20.3758 9.34684L20.6344 9.38366L29.926 10.7065L29.998 10.2117L20.7049 8.88865L16.5505 0.638245C16.4371 0.412354 16.2504 0.22949 16.0198 0.118337C15.4415 -0.161338 14.7388 0.0717247 14.4496 0.638245ZM14.4496 0.638245L14.8949 0.865551M14.4496 0.638245L10.2953 8.88865L14.8949 0.865551M14.8949 0.865551L10.7419 9.11351L10.6244 9.34684L10.3658 9.38366L1.07257 10.7067L1.0714 10.7069C0.924018 10.7275 0.789547 10.7954 0.686476 10.8981M14.8949 0.865551L29.9266 10.7066C30.3066 10.7622 30.5455 11.0983 30.4924 11.4355L30.4924 11.4355L30.4915 11.4411C30.4715 11.5787 30.405 11.7074 30.2999 11.8085C30.2998 11.8086 30.2997 11.8087 30.2996 11.8088L23.5768 18.2296L23.3835 18.4142L23.4296 18.6775L25.0182 27.7454L25.0182 27.7458C25.0781 28.0861 24.8458 28.4261 24.4721 28.4892L24.4714 28.4893C24.3237 28.5145 24.1712 28.4907 24.0435 28.4241L24.0413 28.423L15.729 24.1418L15.5001 24.0239L15.2711 24.1418L6.95886 28.423L6.9581 28.4233C6.84672 28.481 6.72032 28.5072 6.59346 28.4983C6.46661 28.4895 6.34572 28.446 6.24444 28.3739C6.14324 28.3019 6.06603 28.2046 6.02016 28.0939C5.97434 27.9834 5.96122 27.863 5.98186 27.7461L5.98198 27.7454L7.5705 18.6775L7.61662 18.4142L7.42334 18.2296L0.699588 11.8079L0.699555 11.8078C0.572834 11.6868 0.502338 11.5237 0.500057 11.355C0.49778 11.1866 0.563616 11.0221 0.686476 10.8981M0.686476 10.8981C0.686667 10.8979 0.686858 10.8977 0.687049 10.8975L0.332287 10.5452L0.685771 10.8988C0.686006 10.8986 0.686241 10.8983 0.686476 10.8981Z" stroke="#CFCFCF"/>
</svg>
