<svg width="57" height="76" viewBox="0 0 57 76" fill="none" xmlns="http://www.w3.org/2000/svg">
<g filter="url(#filter0_d_62_1147)">
<rect x="4" width="49" height="68" rx="24.5" fill="white"/>
</g>
<path fill-rule="evenodd" clip-rule="evenodd" d="M29.0625 32.5022C29.3857 32.5022 29.6957 32.3738 29.9243 32.1452C30.1528 31.9167 30.2812 31.6067 30.2812 31.2834V17.163L35.5121 22.3963C35.6254 22.5096 35.76 22.5995 35.908 22.6608C36.0561 22.7222 36.2147 22.7537 36.375 22.7537C36.5353 22.7537 36.6939 22.7222 36.842 22.6608C36.99 22.5995 37.1246 22.5096 37.2379 22.3963C37.3512 22.283 37.4411 22.1485 37.5024 22.0004C37.5637 21.8524 37.5953 21.6937 37.5953 21.5334C37.5953 21.3732 37.5637 21.2145 37.5024 21.0664C37.4411 20.9184 37.3512 20.7839 37.2379 20.6706L29.9254 13.3581C29.8122 13.2446 29.6777 13.1545 29.5296 13.0931C29.3815 13.0316 29.2228 13 29.0625 13C28.9022 13 28.7435 13.0316 28.5954 13.0931C28.4473 13.1545 28.3128 13.2446 28.1996 13.3581L20.8871 20.6706C20.6583 20.8994 20.5297 21.2098 20.5297 21.5334C20.5297 21.8571 20.6583 22.1675 20.8871 22.3963C21.116 22.6252 21.4264 22.7537 21.75 22.7537C22.0736 22.7537 22.384 22.6252 22.6129 22.3963L27.8438 17.163V31.2834C27.8438 31.6067 27.9722 31.9167 28.2007 32.1452C28.4293 32.3738 28.7393 32.5022 29.0625 32.5022ZM12 38.5959C12 38.2727 12.1284 37.9627 12.357 37.7341C12.5855 37.5056 12.8955 37.3772 13.2188 37.3772H44.9062C45.2295 37.3772 45.5395 37.5056 45.768 37.7341C45.9966 37.9627 46.125 38.2727 46.125 38.5959C46.125 38.9192 45.9966 39.2292 45.768 39.4577C45.5395 39.6863 45.2295 39.8147 44.9062 39.8147H13.2188C12.8955 39.8147 12.5855 39.6863 12.357 39.4577C12.1284 39.2292 12 38.9192 12 38.5959Z" fill="#AEC0D3"/>
<path d="M21.745 57H19.782V49.356H17.26V47.718H24.267V49.356H21.745V57ZM33.8684 52.346C33.8684 53.0653 33.7774 53.7197 33.5954 54.309C33.4221 54.8897 33.1534 55.3923 32.7894 55.817C32.4341 56.2417 31.9747 56.5667 31.4114 56.792C30.8567 57.0173 30.2024 57.13 29.4484 57.13C28.6944 57.13 28.0357 57.0173 27.4724 56.792C26.9177 56.558 26.4584 56.233 26.0944 55.817C25.7391 55.3923 25.4704 54.8853 25.2884 54.296C25.1151 53.7067 25.0284 53.0523 25.0284 52.333C25.0284 51.371 25.1844 50.5347 25.4964 49.824C25.8171 49.1133 26.3024 48.563 26.9524 48.173C27.6111 47.7743 28.4474 47.575 29.4614 47.575C30.4667 47.575 31.2944 47.7743 31.9444 48.173C32.5944 48.563 33.0754 49.1177 33.3874 49.837C33.7081 50.5477 33.8684 51.384 33.8684 52.346ZM27.0954 52.346C27.0954 52.996 27.1777 53.555 27.3424 54.023C27.5071 54.491 27.7627 54.8507 28.1094 55.102C28.4561 55.3533 28.9024 55.479 29.4484 55.479C30.0117 55.479 30.4624 55.3533 30.8004 55.102C31.1471 54.8507 31.3984 54.491 31.5544 54.023C31.7191 53.555 31.8014 52.996 31.8014 52.346C31.8014 51.3667 31.6194 50.5997 31.2554 50.045C30.8914 49.4903 30.2934 49.213 29.4614 49.213C28.9067 49.213 28.4561 49.3387 28.1094 49.59C27.7627 49.8413 27.5071 50.201 27.3424 50.669C27.1777 51.137 27.0954 51.696 27.0954 52.346ZM38.7551 47.718C39.9511 47.718 40.8221 47.978 41.3681 48.498C41.9228 49.0093 42.2001 49.7157 42.2001 50.617C42.2001 51.0243 42.1394 51.4143 42.0181 51.787C41.8968 52.151 41.6931 52.4803 41.4071 52.775C41.1298 53.061 40.7614 53.2863 40.3021 53.451C39.8428 53.6157 39.2751 53.698 38.5991 53.698H37.7541V57H35.7911V47.718H38.7551ZM38.6511 49.33H37.7541V52.086H38.4041C38.7768 52.086 39.0974 52.0383 39.3661 51.943C39.6348 51.8477 39.8428 51.696 39.9901 51.488C40.1374 51.28 40.2111 51.0113 40.2111 50.682C40.2111 50.2227 40.0854 49.8847 39.8341 49.668C39.5828 49.4427 39.1884 49.33 38.6511 49.33Z" fill="#AEC0D3"/>
<defs>
<filter id="filter0_d_62_1147" x="0" y="0" width="57" height="76" filterUnits="userSpaceOnUse" color-interpolation-filters="sRGB">
<feFlood flood-opacity="0" result="BackgroundImageFix"/>
<feColorMatrix in="SourceAlpha" type="matrix" values="0 0 0 0 0 0 0 0 0 0 0 0 0 0 0 0 0 0 127 0" result="hardAlpha"/>
<feOffset dy="4"/>
<feGaussianBlur stdDeviation="2"/>
<feComposite in2="hardAlpha" operator="out"/>
<feColorMatrix type="matrix" values="0 0 0 0 0 0 0 0 0 0 0 0 0 0 0 0 0 0 0.25 0"/>
<feBlend mode="normal" in2="BackgroundImageFix" result="effect1_dropShadow_62_1147"/>
<feBlend mode="normal" in="SourceGraphic" in2="effect1_dropShadow_62_1147" result="shape"/>
</filter>
</defs>
</svg>
