<svg width="16" height="15" viewBox="0 0 16 15" fill="none" xmlns="http://www.w3.org/2000/svg">
<path d="M10.357 5.05564L10.2396 4.82206L8.09544 0.554607L8.09522 0.554172C8.08671 0.537185 8.07167 0.521509 8.05081 0.511429L8.05023 0.511151C7.99395 0.483874 7.92814 0.50946 7.90375 0.556365L5.76048 4.82206L5.64311 5.05564L5.38433 5.09256L0.587837 5.77691L0.586657 5.77708C0.563473 5.78033 0.542386 5.79088 0.526021 5.807C0.508019 5.82549 0.499714 5.84827 0.500008 5.87003C0.500305 5.89206 0.509442 5.91503 0.528534 5.9333L0.528567 5.93333L3.99889 9.25493L4.19163 9.43942L4.14569 9.70224L3.32581 14.3925L3.32569 14.3932C3.323 14.4085 3.32465 14.4243 3.33083 14.4393C3.33704 14.4543 3.34797 14.4686 3.36361 14.4798L3.07333 14.8869L3.36361 14.4798C3.37933 14.491 3.39885 14.4982 3.42001 14.4997C3.44119 14.5012 3.46195 14.4968 3.47974 14.4875L3.4805 14.4871L7.77071 12.2727L8.00004 12.1544L8.22937 12.2727L12.5196 14.4871L12.5218 14.4883C12.5396 14.4976 12.5644 14.5022 12.5896 14.4979L12.5903 14.4978C12.655 14.4869 12.6814 14.4331 12.6743 14.3929L12.6743 14.3925L11.8544 9.70224L11.8084 9.43942L12.0012 9.25493L10.357 5.05564ZM10.357 5.05564L10.6158 5.09256M10.357 5.05564L10.6158 5.09256M8.26829 0.0612089C8.38731 0.118702 8.48365 0.213287 8.54222 0.330127L8.26829 0.0612089ZM8.26829 0.0612089C7.96981 -0.0834504 7.6071 0.037099 7.45786 0.330127L8.26829 0.0612089ZM10.6158 5.09256L15.4107 5.77669L10.6158 5.09256Z" stroke="#CFCFCF"/>
</svg>
